<svg xmlns="http://www.w3.org/2000/svg" width="1725.836" height="801.521" viewBox="0 0 1725.836 801.521"><g id="Group_393" data-name="Group 393" transform="translate(19788.139 -6315.918)"><path id="Path_256" data-name="Path 256" d="M79.49-25.039q0,3.431-.265,6.278a42.593,42.593,0,0,1-.972,5.84,14.9,14.9,0,0,1-4.683,8.4,17.338,17.338,0,0,1-8.305,3.8q-2.121.292-5.257.511T53.69,0H6.862V-48.618H56.076q14.314,0,18.82,5.475a18.365,18.365,0,0,1,3.446,7.227A44.189,44.189,0,0,1,79.49-25.039Zm-7.422.073q0-10.293-3.092-14.454-2.916-4.307-14.49-4.307H14.019V-4.891h39.76q12.281,0,15.285-4.489T72.068-24.966Z" transform="translate(-19795 7117)" fill="#6c6c6c"></path><path id="Path_257" data-name="Path 257" d="M6.769,0H-1.46L32.67-48.691h9.355L76.415,0H68.359L60.823-10.95H14.132ZM17.424-15.841H57.531L37.348-44.384Z" transform="translate(-19652.123 7117)" fill="#6c6c6c"></path><path id="Path_258" data-name="Path 258" d="M6.769,0H-1.46L32.67-48.691h9.355L76.415,0H68.359L60.823-10.95H14.132ZM17.424-15.841H57.531L37.348-44.384Z" transform="translate(-19399.123 7117)" fill="#6c6c6c"></path><path id="Path_259" data-name="Path 259" d="M56.534.292,41.244.511,34.665.584,21.508.073Q5.685-1.241,5.685-13.87l-.356-9.271.089-8.249a15.967,15.967,0,0,1,.356-3.03q.356-1.788.978-4.489a10.756,10.756,0,0,1,5.6-7.264q4.534-2.518,12.357-2.518l6.667-.365,7.467-.073h2.134l8.534-.073,8.356.219a49.9,49.9,0,0,1,8.223.949q5.289.949,7.379,4.745t2.089,10.147H68.447v-.438a24.751,24.751,0,0,0-.489-5.365,4.254,4.254,0,0,0-2.178-3.029q-1.689-.876-6.845-1.533-2.489-.219-5.778-.365t-7.734-.146l-9.69.219-9.779.219a25.229,25.229,0,0,0-6.09.62,9.521,9.521,0,0,0-3.689,1.643,6.726,6.726,0,0,0-2.534,4.781q-.4,3.176-.578,5.147t-.178,3.723L12.8-21.1q0,9.2,2.267,12.738T27.109-4.818l13.868.146,13.246-.146q8.09,0,11.334-1.569T68.8-14.162v-1.971H76.27q0,9.563-3.511,12.994T56.534.292Z" transform="translate(-19218 7116.416)" fill="#6c6c6c"></path><path id="Path_260" data-name="Path 260" d="M61.989-27.667v4.891H13.775V-4.891H64.4V0H6.789V-48.691H63.8v4.964H13.775v16.06Z" transform="translate(-19082 7117)" fill="#6c6c6c"></path><path id="Path_261" data-name="Path 261" d="M61.989-27.667v4.891H13.775V-4.891H64.4V0H6.789V-48.691H63.8v4.964H13.775v16.06Z" transform="translate(-18559.404 7117)" fill="#6c6c6c"></path><path id="Path_262" data-name="Path 262" d="M6.789,0V-48.691H18.75L73.241-4.672V-48.691h7.177V0H68.634L13.966-44.238V0Z" transform="translate(-18957.369 7117)" fill="#6c6c6c"></path><path id="Path_263" data-name="Path 263" d="M29.188,0V-43.727H-.511v-4.964H66.224v4.964H36.348V0Z" transform="translate(-19521.809 7117)" fill="#6c6c6c"></path><path id="Path_264" data-name="Path 264" d="M29.188,0V-43.727H-.511v-4.964H66.224v4.964H36.348V0Z" transform="translate(-18815.225 7117)" fill="#6c6c6c"></path><path id="Path_265" data-name="Path 265" d="M74.172-34.237q0,6.5-2.278,8.979T61.729-21.827q5.7.657,8.543,2.372t2.848,6.242V0H66.11V-10.8q0-5.329-2.716-7.117T53.755-19.71H13.887V0h-7.1V-48.691h47.58q10.515,0,15.159,2.92T74.172-34.237Zm-7.36-.365q0-5.621-3.2-7.373T52.879-43.727H13.887V-24.6H53.054q7.536,0,10.646-1.971T66.811-34.6Z" transform="translate(-18694.574 7116.965)" fill="#6c6c6c"></path><path id="Path_266" data-name="Path 266" d="M60.358-42.34a39.968,39.968,0,0,0-6.674-1.168q-2.371-.219-5.445-.365t-7.025-.146H38.756q-1.932,0-5.884.219t-6.147.219a36.165,36.165,0,0,0-9,1.424,5.812,5.812,0,0,0-3.513,2.774,10.031,10.031,0,0,0-.834,4.271q0,4.307,2.9,6.059,3.074,1.606,8.606,1.606l6.41.146,13.787-.073,6.41.073q2.459,0,3.688.073t4.742.511a16.122,16.122,0,0,1,9.133,3.285q3.513,2.847,3.513,9.636A15.028,15.028,0,0,1,70.94-6.424,10.642,10.642,0,0,1,65.188-1.9a38.947,38.947,0,0,1-9.44,1.825Q50,.438,43.234.438H38.58Q36.3.438,33.838.4T28.657.292q-2.02,0-4-.146t-7.376-.73A12.972,12.972,0,0,1,8.943-4.271Q6-7.373,6-15.184h7.113v1.022a14.463,14.463,0,0,0,.79,5.475q.79,1.825,4.3,2.7,2.02.438,4.259.766a35.03,35.03,0,0,0,5.049.328l11.416.219a150.686,150.686,0,0,0,15.324-.657q6.279-.657,8.606-2.445T65.188-13.8q0-5.256-2.986-6.679T52.279-21.9l-13.436-.146-15.719-.365q-8.079,0-12.645-2.628T5.913-33.945A16.155,16.155,0,0,1,7.8-42.157a11.2,11.2,0,0,1,6.542-4.782q2.459-.73,5.269-1.278a29.325,29.325,0,0,1,5.62-.548q6.235-.438,13.963-.438h5.093q2.371,0,4.127.146,2.81,0,9.308.657a15.275,15.275,0,0,1,5.576.912,14.208,14.208,0,0,1,4.347,2.738q3.425,3.066,3.425,9.563H63.959a10.044,10.044,0,0,0-.878-4.854A5.642,5.642,0,0,0,60.358-42.34Z" transform="translate(-18434.68 7117)" fill="#6c6c6c"></path><g id="Group_389" data-name="Group 389" transform="translate(-20355.139 5767.918)"><path id="Path_1" data-name="Path 1" d="M367.134,575.532a2.559,2.559,0,0,1-2.461,1.222H126.8a2.567,2.567,0,0,1-2.445-1.222,2.209,2.209,0,0,1,.081-2.38L243.534,371.718a2.435,2.435,0,0,1,2.208-1.508,2.406,2.406,0,0,1,2.2,1.508l119.11,201.434a2.225,2.225,0,0,1,.081,2.38M491.182,688.75c-.122-.326-210.846-355.422-210.985-355.634a13.759,13.759,0,0,0-11.6-5.99h-45.7a13.725,13.725,0,0,0-11.6,5.982C211.14,333.327.416,688.415.31,688.75c-1.214,3.594,1.279,6.6,4.947,6.788l42.23.041a10.232,10.232,0,0,0,7.53-4.278l37.161-63.263c4.938-8.589,11.613-10.553,19.338-10.619h268.47c7.709.065,14.408,2.037,19.322,10.619L436.468,691.3a10.218,10.218,0,0,0,7.53,4.278l42.246-.041c3.643-.187,6.128-3.194,4.938-6.788M836.336,509.4H610.52a14.253,14.253,0,0,1-13.446-14.172c-.081-28.27-.081-84.834,0-113.12a14.261,14.261,0,0,1,14.278-14.229H824.128c73.295,0,91.109,13.226,91.109,54.462v33.591c0,38.693-23.413,53.467-78.9,53.467m128.8-47.853V431.51c0-69.236-16.787-104.368-123.2-104.368H561.461a14.3,14.3,0,0,0-14.31,14.294V681.4a14.326,14.326,0,0,0,14.31,14.343h21.245a14.3,14.3,0,0,0,14.318-14.3l.041-117.1a14.212,14.212,0,0,1,14.025-14.2c57.338-.522,171.982-.1,229.329,0,45.318.065,73.3,7.114,73.3,64.64l-.016,66.62.016.277a14.245,14.245,0,0,0,14.286,14.066h18.23a14.315,14.315,0,0,0,14.31-14.343l.008-79.879c0-33.567-12.208-60.052-63.133-69.22v-1.027c38.22-3.553,67.721-17.814,67.721-69.725m664.109-90.1a65.906,65.906,0,1,1-.693-93.2,65.879,65.879,0,0,1,.693,93.2m21.074-115.263a96.877,96.877,0,1,0,.994,137.022,96.924,96.924,0,0,0-.994-137.022m-98.3-224.618a41.107,41.107,0,1,1,.42,58.133,41.107,41.107,0,0,1-.42-58.133m72.292,71.257a60.353,60.353,0,1,0-42.572,18.017,60.411,60.411,0,0,0,42.572-18.017M1156.489,501.732c65.789-46.516,243.509-163,243.957-163.3,1.524-1.108,3.341-2.526,4.042-4.287,1.507-3.643-.53-7.025-3.749-7.025h-58a30.818,30.818,0,0,0-17.513,5.1l-218.686,149a2.608,2.608,0,0,1-2.054,0,1.927,1.927,0,0,1-1.019-1.671V341.419l-.041-.024a14.31,14.31,0,0,0-14.294-14.294h-21.294a14.279,14.279,0,0,0-14.261,14.066v10l-.016,320.658v9.649h0a14.342,14.342,0,0,0,14.277,14.188h21.294a14.3,14.3,0,0,0,14.3-14.277l.041-150.656a1.869,1.869,0,0,1,1.01-1.63,2.478,2.478,0,0,1,2.526.277l237.307,160.891a30.328,30.328,0,0,0,17.562,5.313c8.247,0,12.9.081,12.9.081h51.063c3.235,0,5.3-3.178,3.765-6.837-.693-1.728-2.534-3.146-4.034-4.254-.44-.326-202.942-131.448-268.926-177.695-1.222-.839-1.834-1.524-1.8-2.657a3.529,3.529,0,0,1,1.646-2.486" transform="translate(567 548.001)" fill="#6c6c6c" fill-rule="evenodd"></path><path id="Path_2" data-name="Path 2" d="M299.855,141.549a76.046,76.046,0,1,1-.782-107.53,76.033,76.033,0,0,1,.782,107.53M499.1,122.2a48.492,48.492,0,1,1-.505-68.552A48.464,48.464,0,0,1,499.1,122.2" transform="translate(1779.789 634.637)" fill="#6c6c6c" fill-rule="evenodd"></path></g></g></svg>