<svg xmlns="http://www.w3.org/2000/svg" width="100" height="100" viewBox="0 0 100 100" fill="none"><path d="M88.7916 0H11.2084C5.0209 0 0 5.0209 0 11.2084V88.7918C0 94.9791 5.0209 100 11.2084 100H88.7918C94.9793 100 100 94.9791 100 88.7916V11.2084C100 5.0209 94.9791 0 88.7916 0ZM95.8334 88.7916C95.8334 92.6875 92.6875 95.8332 88.7918 95.8332H11.2084C7.3125 95.8332 4.1668 92.6873 4.1668 88.7916V11.2084C4.1668 7.3125 7.3127 4.1668 11.2084 4.1668H88.7918C92.6877 4.1668 95.8334 7.3127 95.8334 11.2084V88.7916Z" fill="white" fill-opacity="0.6"></path><path d="M42.1889 29.1665L29.168 70.8331H34.5639L38.4598 57.9165H51.7932L55.8141 70.8331H61.335L48.3764 29.1665H42.1889ZM39.4598 53.9583L43.0639 42.2917C43.8139 39.6876 44.4598 36.8333 45.0223 34.1667H45.2098C45.7723 36.7708 46.4182 39.5626 47.2307 42.3542L50.8973 53.9583H39.4598Z" fill="white" fill-opacity="0.6"></path><path d="M69.6459 29.4375C67.7709 29.4375 66.375 30.8541 66.375 32.7709C66.375 34.625 67.6875 36.0418 69.5834 36.0418H69.6459C71.6459 36.0418 72.9168 34.6252 72.9168 32.7709C72.9166 30.8541 71.6041 29.4375 69.6459 29.4375Z" fill="white" fill-opacity="0.6"></path><path d="M72.2904 40.8335H67.082V70.8335H72.2904V40.8335Z" fill="white" fill-opacity="0.6"></path></svg>