<svg xmlns="http://www.w3.org/2000/svg" width="36" height="36" viewBox="0 0 36 36" fill="none"><path fill-rule="evenodd" clip-rule="evenodd" d="M28.5 30.75H7.5C5.8425 30.75 4.5 29.4075 4.5 27.75V14.25C4.5 12.5925 5.8425 11.25 7.5 11.25H28.5C30.1575 11.25 31.5 12.5925 31.5 14.25V27.75C31.5 29.4075 30.1575 30.75 28.5 30.75Z" stroke="#5065FF" stroke-width="2" stroke-linecap="round" stroke-linejoin="round"></path><path d="M24.2613 11.25V8.25C24.2613 6.5925 22.9188 5.25 21.2613 5.25H14.7393C13.0818 5.25 11.7393 6.5925 11.7393 8.25V11.25" stroke="#5065FF" stroke-width="2" stroke-linecap="round" stroke-linejoin="round"></path><path d="M4.5 14.25L14.0265 20.5365C14.517 20.8605 15.0915 21.033 15.6795 21.033H20.3205C20.9085 21.033 21.483 20.8605 21.9735 20.5365L31.5 14.25" stroke="#5065FF" stroke-width="2" stroke-linecap="round" stroke-linejoin="round"></path></svg>