<svg xmlns="http://www.w3.org/2000/svg" width="37" height="37" viewBox="0 0 37 37" fill="none"><path d="M18.0076 10.8371C17.958 10.8371 17.9104 10.857 17.8755 10.8922C17.8406 10.9274 17.8211 10.9751 17.8215 11.0247C17.8215 11.1283 17.9055 11.2123 18.0091 11.2123C18.1127 11.2123 18.1967 11.1283 18.1967 11.0247C18.1951 10.9212 18.1111 10.838 18.0076 10.8371" stroke="#5065FF" stroke-width="2" stroke-linecap="round" stroke-linejoin="round"></path><path fill-rule="evenodd" clip-rule="evenodd" d="M31.4715 15.5064H4.54428C4.33428 15.5068 4.13275 15.4236 3.98411 15.2753C3.83548 15.1269 3.75195 14.9256 3.75195 14.7156V11.7503C3.75244 11.1047 4.16584 10.5317 4.77838 10.3277L17.5067 6.08396C17.8321 5.97592 18.1837 5.97592 18.5091 6.08396L31.2374 10.3277C31.8499 10.5317 32.2633 11.1047 32.2638 11.7503V14.7156C32.2638 14.9256 32.1803 15.1269 32.0317 15.2753C31.883 15.4236 31.6815 15.5068 31.4715 15.5064Z" stroke="#5065FF" stroke-width="2" stroke-linecap="round" stroke-linejoin="round"></path><path d="M6.00324 27.0121V15.5068" stroke="#5065FF" stroke-width="2" stroke-linecap="round" stroke-linejoin="round"></path><path d="M30.013 15.5068V27.0121" stroke="#5065FF" stroke-width="2" stroke-linecap="round" stroke-linejoin="round"></path><path d="M12.0052 15.5068V27.0121" stroke="#5065FF" stroke-width="2" stroke-linecap="round" stroke-linejoin="round"></path><path d="M18.0081 15.5068V27.0121" stroke="#5065FF" stroke-width="2" stroke-linecap="round" stroke-linejoin="round"></path><path d="M24.0101 15.5068V27.0121" stroke="#5065FF" stroke-width="2" stroke-linecap="round" stroke-linejoin="round"></path><path fill-rule="evenodd" clip-rule="evenodd" d="M30.5864 27.0117H5.42996C4.86173 27.012 4.34241 27.3333 4.08841 27.8416L3.16102 29.6963C3.05629 29.9044 3.00195 30.1342 3.00195 30.3671V31.5136H33.0145V30.3671C33.0145 30.1342 32.9601 29.9044 32.8554 29.6963L31.928 27.8416C31.674 27.3333 31.1547 27.012 30.5864 27.0117Z" stroke="#5065FF" stroke-width="2" stroke-linecap="round" stroke-linejoin="round"></path><path d="M34.5147 31.512H1.50098" stroke="#5065FF" stroke-width="2" stroke-linecap="round" stroke-linejoin="round"></path></svg>