<svg xmlns="http://www.w3.org/2000/svg" width="71" height="84" viewBox="0 0 71 84" fill="none"><path d="M62.4584 9.23959L39.5417 0.656219C37.1667 -0.21874 33.2917 -0.21874 30.9167 0.656219L8 9.23959C3.58333 10.9063 0 16.0729 0 20.7813V54.5311C0 57.9061 2.20833 62.3645 4.91667 64.3645L27.8334 81.4895C31.8751 84.5311 38.5001 84.5311 42.5417 81.4895L65.4584 64.3645C68.1667 62.3228 70.3751 57.9061 70.3751 54.5311V20.7813C70.4167 16.0729 66.8334 10.9063 62.4584 9.23959ZM38.3334 45.4895V56.4478C38.3334 58.1561 36.9167 59.5728 35.2084 59.5728C33.5001 59.5728 32.0834 58.1561 32.0834 56.4478V45.4895C27.8751 44.1561 24.7917 40.2395 24.7917 35.6145C24.7917 29.8645 29.4584 25.1979 35.2084 25.1979C40.9584 25.1979 45.6251 29.8645 45.6251 35.6145C45.6251 40.2811 42.5417 44.1561 38.3334 45.4895Z" fill="#5065FF"></path></svg>