<svg xmlns="http://www.w3.org/2000/svg" width="356" height="356" viewBox="0 0 356 356" fill="none"><path d="M245.891 40C229.286 40 215.782 53.5039 215.782 70.1091C215.782 75.3029 217.102 80.1906 219.425 84.4611L170.101 133.785C163.302 128.491 154.791 125.309 145.527 125.309C136.264 125.309 127.753 128.491 120.948 133.78L82.4638 95.2953C84.2302 92.3095 85.3091 88.8771 85.3091 85.1636C85.3091 74.0935 76.3065 65.0909 65.2364 65.0909C54.1663 65.0909 45.1636 74.0935 45.1636 85.1636C45.1636 96.2337 54.1663 105.236 65.2364 105.236C68.9498 105.236 72.3823 104.157 75.3681 102.391L113.853 140.875C108.563 147.68 105.382 156.191 105.382 165.455C105.382 174.718 108.563 183.229 113.853 190.029L50.3023 253.584C44.9529 248.731 37.8823 245.745 30.1091 245.745C13.5039 245.745 0 259.249 0 275.855C0 292.46 13.5039 305.964 30.1091 305.964C46.7143 305.964 60.2182 292.46 60.2182 275.855C60.2182 270.661 58.8984 265.773 56.575 261.503L120.953 197.124C126.503 201.44 133.198 204.33 140.514 205.249V256.233C126.298 258.632 115.423 270.997 115.423 285.891C115.423 302.496 128.927 316 145.532 316C162.137 316 175.641 302.496 175.641 285.891C175.641 271.002 164.767 258.637 150.55 256.233V205.249C157.867 204.33 164.561 201.44 170.111 197.124L208.596 235.609C206.824 238.6 205.745 242.032 205.745 245.745C205.745 256.816 214.748 265.818 225.818 265.818C236.888 265.818 245.891 256.816 245.891 245.745C245.891 234.675 236.888 225.673 225.818 225.673C222.105 225.673 218.672 226.752 215.686 228.518L177.202 190.034C182.491 183.229 185.673 174.718 185.673 165.455C185.673 156.191 182.491 147.68 177.202 140.881L225.703 92.3798C231.047 97.2324 238.118 100.218 245.891 100.218C262.496 100.218 276 86.7143 276 70.1091C276 53.5039 262.496 40 245.891 40ZM55.2 85.1636C55.2 79.6286 59.7013 75.1273 65.2364 75.1273C70.7714 75.1273 75.2727 79.6286 75.2727 85.1636C75.2727 90.6987 70.7714 95.2 65.2364 95.2C59.7013 95.2 55.2 90.6987 55.2 85.1636ZM30.1091 295.927C19.039 295.927 10.0364 286.925 10.0364 275.855C10.0364 264.784 19.039 255.782 30.1091 255.782C41.1792 255.782 50.1818 264.784 50.1818 275.855C50.1818 286.925 41.1792 295.927 30.1091 295.927ZM165.6 285.891C165.6 296.961 156.597 305.964 145.527 305.964C134.457 305.964 125.455 296.961 125.455 285.891C125.455 274.821 134.457 265.818 145.527 265.818C156.597 265.818 165.6 274.821 165.6 285.891ZM145.527 195.564C128.922 195.564 115.418 182.06 115.418 165.455C115.418 148.849 128.922 135.345 145.527 135.345C162.132 135.345 175.636 148.849 175.636 165.455C175.636 182.06 162.132 195.564 145.527 195.564ZM235.855 245.745C235.855 251.281 231.353 255.782 225.818 255.782C220.283 255.782 215.782 251.281 215.782 245.745C215.782 240.21 220.283 235.709 225.818 235.709C231.353 235.709 235.855 240.21 235.855 245.745ZM245.891 90.1818C234.821 90.1818 225.818 81.1792 225.818 70.1091C225.818 59.039 234.821 50.0364 245.891 50.0364C256.961 50.0364 265.964 59.039 265.964 70.1091C265.964 81.1792 256.961 90.1818 245.891 90.1818Z" fill="#5065FF"></path></svg>