<svg xmlns="http://www.w3.org/2000/svg" width="356" height="356" viewBox="0 0 356 356" fill="none"><path d="M113.286 291.266C110.77 291.266 108.73 293.305 108.73 295.822V318.988C108.73 321.504 110.769 323.544 113.286 323.544C115.801 323.544 117.842 321.504 117.842 318.988V295.822C117.842 293.305 115.801 291.266 113.286 291.266Z" fill="#5065FF"></path><path d="M49.5615 267.54L33.181 283.92C31.4016 285.7 31.4016 288.584 33.181 290.363C34.0704 291.253 35.2366 291.697 36.4022 291.697C37.5678 291.697 38.734 291.253 39.6234 290.363L56.0039 273.982C57.7834 272.203 57.7834 269.319 56.0039 267.54C54.2251 265.76 51.3404 265.76 49.5615 267.54Z" fill="#5065FF"></path><path d="M133.099 219.605C132.285 218.196 130.782 217.327 129.154 217.327C127.526 217.327 126.022 218.196 125.208 219.605L121.22 226.511L117.233 219.605C116.42 218.196 114.916 217.327 113.288 217.327C111.66 217.327 110.157 218.196 109.342 219.605L105.355 226.511L101.367 219.605C100.553 218.196 99.049 217.327 97.4216 217.327C95.7936 217.327 94.2903 218.196 93.4761 219.605L85.5429 233.345C84.2851 235.524 85.0316 238.31 87.2102 239.568C89.3882 240.825 92.1749 240.079 93.4334 237.901L97.4204 230.994L101.408 237.901C102.222 239.31 103.726 240.179 105.353 240.179C106.981 240.179 108.484 239.31 109.299 237.901L113.286 230.994L117.273 237.901C118.086 239.31 119.59 240.179 121.218 240.179C122.845 240.179 124.349 239.31 125.163 237.901L129.151 230.994L133.138 237.901C133.982 239.363 135.513 240.179 137.087 240.179C137.86 240.179 138.644 239.982 139.361 239.568C141.54 238.31 142.287 235.524 141.028 233.345L133.099 219.605Z" fill="#5065FF"></path><path d="M27.7216 205.701H4.55593C2.03966 205.701 0 207.741 0 210.257C0 212.773 2.03966 214.813 4.55593 214.813H27.7211C30.2368 214.813 32.277 212.773 32.277 210.257C32.277 207.741 30.2373 205.701 27.7216 205.701Z" fill="#5065FF"></path><path d="M164.322 147.785C157.297 138.738 151.533 131.31 149.98 122.804C156.205 122.639 161.221 117.535 161.221 111.272V87.9415C161.221 81.6124 156.101 76.462 149.786 76.4005C148.316 64.5435 141.189 54.4209 131.192 48.8258C130.612 39.4509 122.804 32 113.286 32C103.767 32 95.9593 39.4509 95.379 48.8258C85.3806 54.4209 78.2537 64.5435 76.784 76.4005C70.4714 76.4643 65.3541 81.6141 65.3541 87.9415V111.272C65.3541 117.535 70.3701 122.639 76.595 122.804C75.0422 131.31 69.2785 138.738 62.253 147.785C50.872 162.441 36.7083 180.682 36.7083 211.761C36.7083 253.987 71.0614 288.34 113.287 288.34C155.513 288.34 189.866 253.987 189.866 211.761C189.867 180.682 175.703 162.442 164.322 147.785ZM113.286 41.1113C116.269 41.1113 118.907 42.602 120.507 44.8734C118.171 44.4065 115.757 44.1577 113.286 44.1577C110.814 44.1577 108.401 44.4065 106.065 44.8734C107.664 42.602 110.302 41.1113 113.286 41.1113ZM113.286 53.2695C126.997 53.2695 138.405 63.2919 140.585 76.3948H85.9859C88.1656 63.2925 99.5739 53.2695 113.286 53.2695ZM74.4659 87.9415C74.4659 86.5983 75.5586 85.5055 76.9019 85.5055H149.674C151.018 85.5055 152.11 86.5983 152.11 87.9415V95.0507H74.4659V87.9415ZM74.4659 111.272V104.163H152.11V111.272C152.11 112.615 151.017 113.708 149.674 113.708H76.9013C75.5581 113.708 74.4659 112.615 74.4659 111.272ZM113.288 279.229C76.0859 279.229 45.8201 248.963 45.8201 211.761C45.8201 183.804 58.3736 167.636 69.4493 153.374C77.0431 143.594 84.2588 134.293 85.8111 122.82H96.9483C96.2052 142.06 90.8225 155.854 85.6055 169.221C80.0275 183.511 74.2592 198.289 74.2592 219.04C74.2592 221.555 76.2989 223.596 78.8152 223.596C81.3314 223.596 83.3711 221.556 83.3711 219.04C83.3711 200.004 88.579 186.661 94.0933 172.533C99.6246 158.362 105.331 143.732 106.066 122.82H120.506C121.241 143.732 126.948 158.362 132.479 172.533C137.993 186.66 143.201 200.005 143.201 219.04C143.201 221.555 145.241 223.596 147.757 223.596C150.273 223.596 152.313 221.556 152.313 219.04C152.313 198.289 146.545 183.512 140.967 169.221C135.75 155.855 130.366 142.06 129.624 122.82H140.766C142.317 134.294 149.533 143.595 157.127 153.374C168.203 167.637 180.757 183.804 180.757 211.761C180.756 248.963 150.489 279.229 113.288 279.229Z" fill="#5065FF"></path><path d="M177.009 267.539C175.23 265.76 172.346 265.76 170.567 267.539C168.788 269.319 168.788 272.203 170.567 273.982L186.947 290.362C187.837 291.252 189.003 291.697 190.169 291.697C191.334 291.697 192.5 291.252 193.39 290.362C195.169 288.583 195.169 285.699 193.39 283.92L177.009 267.539Z" fill="#5065FF"></path><path d="M222.015 205.701H198.849C196.333 205.701 194.293 207.741 194.293 210.257C194.293 212.773 196.332 214.813 198.849 214.813H222.015C224.531 214.813 226.571 212.773 226.571 210.257C226.571 207.741 224.531 205.701 222.015 205.701Z" fill="#5065FF"></path></svg>