<svg xmlns="http://www.w3.org/2000/svg" width="75" height="84" viewBox="0 0 75 84" fill="none"><path fill-rule="evenodd" clip-rule="evenodd" d="M1.573 12.8434C3.72529e-07 15.0845 0 21.7461 0 35.0696V41.6308C0 65.1225 17.6623 76.5229 28.744 81.3637C31.75 82.6767 33.2529 83.3333 37.5 83.3333C41.7471 83.3333 43.25 82.6767 46.2558 81.3637C57.3375 76.5229 75 65.1225 75 41.6308V35.0696C75 21.7461 75 15.0845 73.4271 12.8434C71.8542 10.6022 65.5904 8.45817 53.0629 4.16996L50.6762 3.353C44.1458 1.11767 40.8808 0 37.5 0C34.1192 0 30.8542 1.11767 24.3238 3.353L21.9371 4.16996C9.40967 8.45817 3.14596 10.6022 1.573 12.8434ZM50.2479 35.4146C51.3971 34.1271 51.2854 32.1517 49.9979 31.0023C48.7104 29.8528 46.735 29.9646 45.5854 31.252L33.0358 45.3079L29.4146 41.2521C28.2649 39.9646 26.2895 39.8529 25.002 41.0021C23.7146 42.1517 23.6028 44.1271 24.7523 45.4146L30.7046 52.0812C31.2975 52.7454 32.1454 53.125 33.0358 53.125C33.9258 53.125 34.7737 52.7454 35.3667 52.0812L50.2479 35.4146Z" fill="#5065FF"></path></svg>