<svg xmlns="http://www.w3.org/2000/svg" width="100" height="100" viewBox="0 0 100 100" fill="none"><path d="M68.7117 25.1152C68.3607 21.5768 68.4305 18.3057 69.2693 15.2137C69.6916 13.666 70.3082 12.158 71.1783 10.6676C72.052 9.17363 73.183 7.69707 74.649 6.23105L77.0566 3.82324L73.2352 0L70.8258 2.40605C68.5691 4.6625 66.9086 7.03887 65.7516 9.50371C64.0076 13.2072 63.41 17.1 63.4533 20.9963C63.4898 24.8961 64.1377 28.8168 64.8832 32.7549C65.3695 35.3205 65.7898 37.7891 66.0244 40.1463C66.377 43.6848 66.3059 46.9576 65.465 50.0479C65.0447 51.5939 64.4279 53.1033 63.5561 54.5955C62.6822 56.0877 61.5514 57.5625 60.0854 59.0287V59.0305H60.0871L59.0291 60.0883C58.7461 60.3697 58.4662 60.6391 58.1797 60.8979L40.8678 43.5859C40.0131 44.5273 39.292 45.4898 38.6771 46.499L55.3049 63.1248C54.5701 63.5939 53.8334 64.0002 53.0918 64.3477C52.2701 64.7352 51.4416 65.0529 50.5973 65.3066L36.6588 51.3682C36.3252 52.7666 36.1463 54.2656 36.1133 55.9297L46.31 66.1248C45.4242 66.2029 44.5209 66.2307 43.5984 66.2256C41.533 66.2049 39.3791 65.9857 37.1313 65.6438C37.225 66.1578 37.3154 66.6512 37.4074 67.1324C37.6314 68.2979 37.8537 69.5227 38.0588 70.7891C38.8283 70.8969 39.5943 70.9871 40.3604 71.0635C44.2672 71.451 48.1809 71.4039 51.9955 70.3686C53.9029 69.8527 55.7738 69.0865 57.5891 68.0234C59.4025 66.9621 61.1639 65.602 62.8525 63.9135L63.9086 62.8539C66.1652 60.6008 67.824 58.2228 68.9861 55.7562C70.7285 52.0525 71.3242 48.1633 71.2844 44.2652C71.2443 40.3654 70.598 36.443 69.8547 32.5066C69.3648 29.9391 68.9461 27.4725 68.7117 25.1152Z" fill="white" fill-opacity="0.4"></path><path d="M96.1756 22.942L93.7695 25.3479C93.4848 25.6311 93.2051 25.9004 92.9201 26.1574L75.6064 8.84375C74.7535 9.78711 74.0326 10.7512 73.4176 11.7568L90.0434 28.3846C89.3086 28.8553 88.5754 29.26 87.832 29.6074C87.0103 29.9947 86.1801 30.3125 85.3377 30.5662L71.3992 16.6295C71.0656 18.026 70.8867 19.5252 70.8555 21.1893L81.0504 31.3844C80.1645 31.4643 79.2613 31.4904 78.3387 31.4852C76.2734 31.466 74.1193 31.2455 71.8715 30.9016C71.9652 31.4158 72.0537 31.9127 72.1492 32.3938C72.3699 33.5592 72.5924 34.782 72.799 36.0486C73.5686 36.1562 74.3328 36.2467 75.0988 36.3232C79.0074 36.7104 82.9228 36.6652 86.7342 35.6283C88.6414 35.1125 90.5141 34.348 92.3293 33.2834C94.141 32.2238 95.9025 30.8617 97.5943 29.1715L99.9986 26.7639L96.1756 22.942Z" fill="white" fill-opacity="0.4"></path><path d="M26.5811 88.2431L9.95684 71.619C10.6883 71.1448 11.4248 70.7384 12.1664 70.3927C12.9898 70.0052 13.8184 69.6856 14.6609 69.4337L28.5994 83.3724C28.933 81.9757 29.1119 80.4747 29.1432 78.8106L18.9518 68.619C19.8377 68.5409 20.7393 68.5079 21.6615 68.5147C23.7252 68.5339 25.8811 68.7579 28.1236 69.1003C28.0334 68.5845 27.9432 68.0858 27.851 67.6063C27.6287 66.4425 27.408 65.2161 27.2014 63.9497C26.4334 63.8489 25.6693 63.7569 24.9031 63.6804C20.9928 63.2878 17.0758 63.3329 13.2627 64.37C11.3625 64.8913 9.48457 65.6556 7.66934 66.7169C5.85762 67.7765 4.09609 69.1366 2.40586 70.8286L0 73.2345L3.82344 77.0597L6.2293 74.6521C6.5125 74.3689 6.7957 74.0997 7.08066 73.8425L24.3943 91.1546C25.2453 90.2132 25.9695 89.2491 26.5811 88.2431Z" fill="white" fill-opacity="0.4"></path><path d="M33.974 59.8554C33.6248 56.3172 33.6926 53.0443 34.5316 49.9558C34.9537 48.4047 35.5688 46.8986 36.4424 45.4064C37.3143 43.9142 38.4469 42.4361 39.9131 40.9699L40.9709 39.9137L40.9691 39.9103C41.2506 39.6271 41.5338 39.3596 41.8203 39.1041L59.1307 56.4144C59.9836 55.4728 60.708 54.507 61.3178 53.5031L44.6936 36.8791C45.4266 36.4049 46.1648 35.9982 46.9049 35.6525C47.7283 35.267 48.5568 34.9455 49.3994 34.6935L63.3379 48.6304C63.6732 47.2338 63.8504 45.7363 63.8816 44.0722L53.69 33.8789C54.5742 33.8008 55.4775 33.7678 56.3998 33.7765C58.4619 33.7957 60.6193 34.0197 62.8619 34.3586C62.7717 33.8443 62.6814 33.3474 62.5893 32.8664C62.367 31.7008 62.1445 30.4777 61.9396 29.2115C61.1734 29.1072 60.4076 29.0154 59.6414 28.9388C55.7295 28.5496 51.8141 28.5949 48.001 29.6318C46.1006 30.1512 44.2229 30.9156 42.4076 31.9769C40.5959 33.0383 38.8344 34.3967 37.1441 36.0887L37.1459 36.0904L36.0881 37.1482C33.8334 39.4029 32.1727 41.7793 31.0139 44.2461C29.2699 47.9496 28.6723 51.8406 28.7156 55.7351C28.7523 59.6367 29.4 63.5592 30.1436 67.4955C30.6316 70.0613 31.052 72.5295 31.2865 74.8851C31.6373 78.4271 31.568 81.6963 30.7271 84.7883C30.3068 86.3344 29.69 87.8437 28.8197 89.3361C27.9459 90.8283 26.8115 92.3013 25.3473 93.7693L22.9414 96.1769L26.7633 100L29.1727 97.5941C31.4273 95.3394 33.0881 92.9613 34.2484 90.4963C35.9908 86.7928 36.5883 82.9035 36.5467 79.0054C36.5066 75.1039 35.8588 71.1849 35.1152 67.2486C34.6271 64.681 34.2084 62.2144 33.974 59.8554Z" fill="white" fill-opacity="0.4"></path></svg>