<svg xmlns="http://www.w3.org/2000/svg" width="84" height="84" viewBox="0 0 84 84" fill="none"><path d="M8.33333 83.3333H16.6667C21.25 83.3333 25 79.5833 25 74.9999V66.6666C25 62.0833 21.25 58.3333 16.6667 58.3333H8.33333C3.75 58.3333 0 62.0833 0 66.6666V74.9999C0 79.5833 3.75 83.3333 8.33333 83.3333Z" fill="#5065FF"></path><path d="M37.5013 83.3333H45.8346C50.418 83.3333 54.168 79.5833 54.168 75V45.8333C54.168 41.25 50.418 37.5 45.8346 37.5H37.5013C32.918 37.5 29.168 41.25 29.168 45.8333V75C29.168 79.5833 32.918 83.3333 37.5013 83.3333Z" fill="#5065FF"></path><path d="M66.6654 83.3333H74.9987C79.582 83.3333 83.332 79.5833 83.332 75V8.33333C83.332 3.75 79.582 0 74.9987 0H66.6654C62.082 0 58.332 3.75 58.332 8.33333V75C58.332 79.5833 62.082 83.3333 66.6654 83.3333Z" fill="#5065FF"></path></svg>