<svg xmlns="http://www.w3.org/2000/svg" width="36" height="36" viewBox="0 0 36 36" fill="none"><path fill-rule="evenodd" clip-rule="evenodd" d="M30 26.211V30C30 30.828 29.328 31.5 28.5 31.5H9C7.3425 31.5 6 30.1575 6 28.5V15C6 13.3425 7.3425 12 9 12H12.429C13.122 12 13.7925 12.24 14.328 12.678L29.4495 25.05C29.7975 25.335 30 25.761 30 26.211Z" stroke="#5065FF" stroke-width="2" stroke-linecap="round" stroke-linejoin="round"></path><path d="M28.5 12H22.5C21.672 12 21 11.328 21 10.5V4.5" stroke="#5065FF" stroke-width="2" stroke-linecap="round" stroke-linejoin="round"></path><path d="M7.5 12V7.5C7.5 5.8425 8.8425 4.5 10.5 4.5H21.258C22.053 4.5 22.8165 4.8165 23.3775 5.3775L27.621 9.621C28.1835 10.1835 28.5 10.947 28.5 11.742V24" stroke="#5065FF" stroke-width="2" stroke-linecap="round" stroke-linejoin="round"></path><path d="M12 25.5H16.5" stroke="#5065FF" stroke-width="2" stroke-linecap="round" stroke-linejoin="round"></path></svg>