<svg xmlns="http://www.w3.org/2000/svg" width="89" height="101" viewBox="0 0 89 101" fill="none"><path d="M46.8861 50C53.258 50.0187 57.0996 50.6787 62.2768 54.4785C64.8938 57.4236 64.894 57.4239 67.1518 60.6035L69.4565 63.7988C71.2766 66.4783 71.2768 66.4786 72.2768 68.4785C75.552 69.3402 78.851 69.9547 82.1752 70.5996C86.8042 71.9114 86.8047 71.9116 88.2768 74.4785C88.4939 77.2897 88.5596 79.8669 88.4643 82.666L88.4233 84.9375C88.388 86.7848 88.3342 88.6318 88.2768 90.4785L86.3705 91.3262C83.6066 92.8474 82.8536 94.7848 81.2768 97.4785C77.9991 100.614 75.5819 100.861 71.1186 100.883C69.8738 100.895 68.6286 100.908 67.3461 100.921C66.7183 100.92 66.0901 100.917 65.4623 100.916L63.9994 99.4531L62.35 97.3525C59.655 95.1748 57.9301 94.9984 54.5151 95C53.7926 95.0213 53.0912 95.0419 52.3901 95.0625C50.1258 95.0801 47.8629 95.1027 45.599 95.1514C44.0261 95.186 42.4525 95.2133 40.8793 95.2334C36.2521 95.2816 31.6258 95.3541 26.9994 95.4531L25.9994 97.4531C24.4997 98.6529 23.0387 99.8213 21.5824 100.986C21.2429 100.984 20.9034 100.983 20.5639 100.98C19.468 100.98 18.3717 100.98 17.2426 100.979C13.5849 100.361 11.8962 99.0575 9.27677 96.4785L8.83927 94.3535L8.27677 92.4785C5.28077 91.174 5.28015 91.1738 2.27677 90.4785V88.4785H0.276773C0.195698 85.7279 0.136244 82.9797 0.089273 80.2285L0.0131011 77.873C-0.0322923 74.3324 -0.0550932 72.088 1.66349 68.9316C3.27646 67.4788 3.2769 67.4785 5.27677 67.4785L8.27677 57.4785L4.27677 56.4785C4.23405 54.8124 4.23614 53.1447 4.27677 51.4785C5.888 49.8676 7.63951 50.3271 9.86857 50.3018C10.8468 50.2889 11.8256 50.2759 12.8334 50.2627C13.8999 50.2553 14.9671 50.2478 16.0658 50.2402C17.1575 50.2322 18.2497 50.2241 19.3744 50.2158C21.6927 50.202 24.0112 50.1914 26.3295 50.1836C29.8654 50.1664 33.4012 50.1223 36.9369 50.0781C39.1881 50.068 41.4397 50.0595 43.6908 50.0527C44.7451 50.0352 45.7999 50.018 46.8861 50ZM72.2143 84.291C68.337 84.5385 68.3368 84.5386 68.0893 88.416C68.2768 91.4785 68.2769 91.4786 70.2768 93.4785C72.8392 93.666 72.8395 93.666 75.2768 93.4785C76.7086 92.0467 76.7086 92.0467 77.2768 86.4785C75.2769 84.4786 75.2767 84.4785 72.2143 84.291ZM19.2143 84.291C15.5785 84.5231 15.5785 84.5232 14.5268 87.8535C14.2768 90.4785 14.2768 90.4785 15.3393 92.3535C17.8421 93.8068 17.8426 93.8069 23.2768 92.4785C23.9018 89.6036 23.9018 89.6035 24.2768 86.4785C22.2769 84.4786 22.2764 84.4785 19.2143 84.291ZM13.2768 66.4785H30.2768V57.4785H16.2768L13.2768 66.4785Z" fill="white" fill-opacity="0.4"></path><path d="M38.714 27C41.8503 27.5489 43.1415 27.9811 45.214 30.4375C45.6855 33.2836 45.4933 35.5056 45.214 38.4375C44.554 39.0975 43.894 39.7575 43.214 40.4375C42.5664 43.0081 42.5664 43.0081 42.214 45.4375C39.904 45.4375 37.594 45.4375 35.214 45.4375C34.9047 44.4887 34.5953 43.54 34.2765 42.5625C33.3401 39.5767 33.3401 39.5767 32.214 37.4375C31.8204 33.8158 31.7618 32.074 33.9015 29.0625C36.214 27.4375 36.214 27.4375 38.714 27Z" fill="white" fill-opacity="0.4"></path><path d="M57.1536 4.60732C60.3205 6.76633 63.2758 9.07765 66.1536 11.6073C65.8236 13.2573 65.4936 14.9073 65.1536 16.6073C63.3802 17.2792 63.3802 17.2792 61.1536 17.6073C59.3646 16.4979 59.3646 16.4979 57.5286 14.8573C51.378 9.9505 44.2891 7.99336 36.4427 8.32607C29.0301 9.23684 24.0617 11.2778 18.6927 16.4433C17.1536 17.6073 17.1536 17.6073 14.2161 17.4823C13.1952 17.0492 13.1952 17.0492 12.1536 16.6073C11.8889 13.6947 11.767 12.1402 13.5169 9.72841C25.7493 -0.837042 42.6659 -3.18685 57.1536 4.60732Z" fill="white" fill-opacity="0.4"></path><path d="M49.7148 15.9823C52.2688 17.3799 54.0887 18.5437 56.1523 20.6073C56.2773 23.2323 56.2773 23.2323 56.1523 25.6073C54.0273 26.3573 54.0273 26.3573 51.1523 26.6073C50.2448 25.9886 49.3373 25.3698 48.4023 24.7323C44.3091 22.056 41.0121 21.3711 36.1523 21.6073C32.5668 22.5581 29.8041 23.9556 27.1523 26.6073C24.5273 26.7323 24.5273 26.7323 22.1523 26.6073C21.8223 24.9573 21.4923 23.3073 21.1523 21.6073C22.2072 20.6406 23.2717 19.6844 24.3398 18.7323C24.9315 18.1987 25.5232 17.665 26.1328 17.1152C33.2391 11.8095 42.0123 12.1981 49.7148 15.9823Z" fill="white" fill-opacity="0.4"></path></svg>