<svg xmlns="http://www.w3.org/2000/svg" width="36" height="36" viewBox="0 0 36 36" fill="none"><path d="M22.5 8.25C22.5 10.7078 25.182 13.3332 26.712 14.6315C27.3162 15.1228 28.1823 15.1228 28.7865 14.6315C30.318 13.3332 33 10.7078 33 8.25" stroke="#5065FF" stroke-width="2" stroke-linecap="round" stroke-linejoin="round"></path><path d="M27.7503 8.175C27.7917 8.17516 27.8251 8.20881 27.825 8.25019C27.8249 8.29158 27.7913 8.32505 27.7499 8.325C27.7085 8.32495 27.675 8.29139 27.675 8.25C27.6749 8.23003 27.6828 8.21084 27.6969 8.19675C27.7111 8.18265 27.7303 8.17482 27.7503 8.175" stroke="#5065FF" stroke-width="2" stroke-linecap="round" stroke-linejoin="round"></path><path d="M22.5 8.25V8.25C22.5 5.35051 24.8505 3 27.75 3V3C30.6495 3 33 5.35051 33 8.25V8.25" stroke="#5065FF" stroke-width="2" stroke-linecap="round" stroke-linejoin="round"></path><path d="M5.27148 24H30.7313" stroke="#5065FF" stroke-width="2" stroke-linecap="round" stroke-linejoin="round"></path><path d="M18.0081 6C14.6921 6 12.0039 12.0442 12.0039 19.5C12.0039 26.9558 14.6921 33 18.0081 33" stroke="#5065FF" stroke-width="2" stroke-linecap="round" stroke-linejoin="round"></path><path d="M18.0089 15H5.27148" stroke="#5065FF" stroke-width="2" stroke-linecap="round" stroke-linejoin="round"></path><path d="M31.5 19.5C31.5 26.9558 25.4558 33 18 33C10.5442 33 4.5 26.9558 4.5 19.5C4.5 12.0442 10.5442 6 18 6" stroke="#5065FF" stroke-width="2" stroke-linecap="round" stroke-linejoin="round"></path><path d="M24.0042 19.5C24.0042 26.9558 21.316 33 18 33" stroke="#5065FF" stroke-width="2" stroke-linecap="round" stroke-linejoin="round"></path></svg>