<svg xmlns="http://www.w3.org/2000/svg" width="100" height="100" viewBox="0 0 100 100" fill="none"><path d="M88.6509 80.5452C81.8542 84.0389 59.986 91.0295 49.6456 80.5452C49.6456 80.5452 73.5794 82.6952 74.4669 80.5452C75.3545 78.3953 71.8075 74.9016 53.1923 70.8673C34.5771 66.8361 21.2773 70.8673 21.2773 70.8673V96.6731C21.2773 96.6731 33.0959 90.4889 39.0083 93.4483C44.9207 96.4076 61.1702 100.707 70.9233 99.9013C80.673 99.095 96.3352 86.1922 99.2915 81.8924C102.241 77.5891 95.4444 77.0485 88.6509 80.5452Z" fill="#5065FF"></path><path d="M14.184 70.8672H0V98.5603H14.184V70.8672Z" fill="#5065FF"></path><path d="M77.6136 17.3246L50.0423 0L22.3867 17.2965L25.6992 22.5932L50.036 7.37793L74.2855 22.6152L77.6136 17.3246Z" fill="#5065FF"></path><path d="M70.3281 25.3401H64.0781V49.4833H70.3281V25.3401Z" fill="#5065FF"></path><path d="M53.1248 25.3401H46.875V49.4833H53.1248V25.3401Z" fill="#5065FF"></path><path d="M35.9216 25.3401H29.6719V49.4833H35.9216V25.3401Z" fill="#5065FF"></path><path d="M75.8004 54.1113H24.1953V60.3613H75.8004V54.1113Z" fill="#5065FF"></path></svg>