<svg xmlns="http://www.w3.org/2000/svg" xmlns:xlink="http://www.w3.org/1999/xlink" id="Layer_1" x="0px" y="0px" width="270" height="60.93400192260742" viewBox="0 0 270 60.934" xml:space="preserve"><g>	<g>		<path fill="#4FA8C2" d="M22.707,27.041c-4.425-1.892-9.605-0.846-13.825-3.101c-1.561-0.834-2.395-2.568-2.31-4.242    c0.232-4.53,4.228-6.133,8.267-6.226c0.509-0.012,1.06-0.001,1.622,0.035v0.001c0.056,0.002,0.114,0.007,0.17,0.01    c0.472,0.035,0.949,0.088,1.42,0.168c0.047,0.009,0.093,0.018,0.14,0.027c0.071,0.014,0.143,0.028,0.214,0.042    c1.996,0.441,3.988,1.491,3.988,3.392v2.177c0.003,0.345,0.257,0.623,0.59,0.686h3.276c0.386-0.005,0.705-0.319,0.711-0.709    v-3.513c0-4.883-6.75-6.39-10.508-6.497v0.005c-2.048-0.092-4.114,0.115-5.977,0.522c-5.999,1.313-10.92,7.579-8.03,13.612    c1.463,3.054,4.407,4.626,7.56,5.483c4.277,1.164,11.959-0.226,13.807,5.126c1.779,5.154-3.19,8.197-7.481,8.928    c-4.902,0.835-9.69-1.534-12.626-5.372c-0.084-0.109-0.175-0.204-0.273-0.292c-0.324-0.282-0.838-0.302-1.178-0.02l-2.069,2.128    l0.105-0.099c-0.339,0.32-0.39,0.802-0.163,1.173c5.381,6.336,13.861,8.313,21.67,5.319C30.459,42.49,31.507,30.805,22.707,27.041    z"></path>		<path fill="#4FA8C2" d="M84.567,9.295c-9.751,0-17.912,7.151-17.912,19.068c0,11.194,8.234,18.993,18.995,18.993    c6.816,0,11.59-3.555,13.037-4.782c0.213-0.271,0.259-0.643,0.118-0.959l-1.658-2.561c-0.252-0.254-0.66-0.287-0.943-0.054    c-1.358,1.179-5.102,3.951-10.338,3.951c-7.51,0-13.938-5.273-14.083-14.443h27.325c0.331-0.027,0.592-0.296,0.603-0.631    c0.042-0.54,0.092-1.309,0.092-1.825C99.804,17.024,94.604,9.295,84.567,9.295z M71.999,24.607    c1.229-7.295,6.502-11.194,12.495-11.194c5.344,0,9.967,3.683,10.255,11.194H71.999z"></path>		<path fill="#4FA8C2" d="M48.728,9.295c-8.447,0-11.697,5.525-12.358,6.859v-5.259c-0.01-0.387-0.326-0.704-0.718-0.708h-3.476    c-0.396,0.003-0.721,0.328-0.722,0.727l0.014,49.37c0.036,0.351,0.317,0.63,0.675,0.65h3.56c0.358-0.02,0.644-0.302,0.677-0.66    v-9.686h0.003V40.501c0.059,0.133,3.117,6.855,11.912,6.855c9.39,0,16.251-7.511,16.251-18.993    C64.545,17.096,58.478,9.295,48.728,9.295z M47.789,43.024c-7.583,0-11.554-7.295-11.554-14.59c0-10.326,5.706-14.66,11.772-14.66    c6.788,0,11.484,5.704,11.484,14.588C59.49,37.606,54.217,43.024,47.789,43.024z"></path>		<path fill="#4FA8C2" d="M269.363,42.104h-2.396c-1.013,0-1.59-0.507-1.59-1.59v-17.26c0-8.955-3.25-14.083-12.061-14.083    c-6.139,0-11.41,4.189-13.36,9.099h-0.146c-1.082-5.994-4.549-9.099-11.265-9.099c-5.569,0-11.202,4.163-13.076,9.003v-7.713    c-0.025-0.359-0.312-0.645-0.673-0.668h-3.549c-0.376,0.021-0.683,0.329-0.688,0.712v5.381v11.339v18.447    c0.017,0.374,0.317,0.677,0.696,0.691h0.595h0.619h2.303c0.376-0.012,0.683-0.317,0.698-0.698v-5.153V29.176    c0-1.661,0.148-3.321,0.579-4.839c1.517-5.56,5.923-10.688,11.845-10.688c6.86,0,7.655,5.343,7.655,10.833V45.66    c0.008,0.381,0.316,0.691,0.698,0.705h3.515c0.372-0.012,0.674-0.308,0.697-0.681V29.176c0-1.95,0.147-3.683,0.651-5.271    c1.445-5.345,5.996-10.256,11.484-10.256c6.644,0,7.871,4.91,7.871,10.833v17.476c0,3.107,1.302,4.407,4.406,4.407h4.492    c0.345-0.043,0.614-0.319,0.635-0.67v-2.899c-0.019-0.379-0.332-0.69-0.72-0.69h0.07L269.363,42.104z"></path>		<path fill="#4FA8C2" d="M206.466,46.372l-0.061-0.002c0.396,0,0.729-0.328,0.729-0.73l0.003-0.001V10.435    c-0.038-0.346-0.316-0.618-0.669-0.64h-3.59c-0.36,0.02-0.65,0.306-0.679,0.668v16.981c0,7.872-5.127,15.165-13.36,15.165    c-7.005,0-7.944-5.056-7.944-10.761V14.096c0-2.96-1.88-4.296-4.985-4.296c0,0-5.554-0.001-6.5-0.001    c-5.707,0-9.237,2.242-10.969,7.73H158.4c0.024-0.131,0.042-0.399,0.042-0.918v-2.456c0-2.889-1.374-4.39-4.407-4.39h-13.787    V0.712c-0.007-0.388-0.322-0.704-0.713-0.712h-3.412c-0.385,0.005-0.701,0.316-0.715,0.702v9.063h-4.115    c-0.394,0.002-0.718,0.323-0.723,0.72v2.679c0.003,0.393,0.325,0.716,0.721,0.719h4.046v16.602    c-1.049,7.009-7.111,12.401-14.405,12.401c-8.035,0-14.569-6.534-14.569-14.568c0-7.951,6.404-14.43,14.326-14.562h-0.481    c0.393,0,0.719-0.322,0.725-0.718v-3.02c-0.006-0.363-0.287-0.657-0.645-0.699c-10.188,0.342-18.371,8.731-18.371,18.998    c0,10.486,8.53,19.015,19.016,19.015c6.332,0,11.948-3.116,15.405-7.892c2.359,6.351,8.328,7.214,11.638,7.214    c0.562,0,1.043-0.031,1.405-0.064c0.36-0.012,0.651-0.292,0.69-0.651v-3.094c-0.021-0.353-0.309-0.64-0.67-0.646    c-0.267,0.027-0.601,0.049-0.991,0.049c-2.745,0-8.162-1.085-8.162-9.607V13.894h11.765c1.012,0,1.589,0.983,1.589,1.994v29.795    c0.02,0.37,0.32,0.669,0.695,0.682h3.514c0.382-0.012,0.694-0.322,0.702-0.708V31.054c0-2.31,0.289-4.766,1.012-7.076    c1.588-5.346,5.417-10.013,10.543-10.013c0.49,0,4.25,0,4.25,0c1.012,0,1.669,0.913,1.669,1.923v17.261    c0,9.46,3.61,14.083,12.205,14.083c7.74,0,12.461-5.348,14.036-8.895v7.39c0.043,0.357,0.34,0.644,0.711,0.644l3.467,0    L206.466,46.372z"></path>	</g>	<g>		<rect x="242.076" y="57.396" fill="#4FA8C2" width="27.924" height="3.48"></rect>		<rect x="74.527" y="57.396" fill="#4FA8C2" width="27.922" height="3.48"></rect>		<rect x="46.607" y="57.396" fill="#80CBDE" width="27.922" height="3.48"></rect>		<rect x="102.451" y="57.396" fill="#CF7864" width="27.925" height="3.48"></rect>		<rect x="186.227" y="57.396" fill="#4FA8C2" width="27.924" height="3.48"></rect>		<rect x="130.376" y="57.396" fill="#80CBDE" width="27.925" height="3.48"></rect>		<rect x="158.302" y="57.396" fill="#C34C37" width="27.924" height="3.48"></rect>		<rect x="214.151" y="57.396" fill="#CF7864" width="27.924" height="3.48"></rect>	</g></g></svg>