<svg xmlns="http://www.w3.org/2000/svg" width="356" height="356" viewBox="0 0 356 356" fill="none"><path d="M87.81 210.19C88.5084 210.887 89.0626 211.714 89.4407 212.626C89.8188 213.537 90.0134 214.513 90.0134 215.5C90.0134 216.487 89.8188 217.463 89.4407 218.374C89.0626 219.286 88.5084 220.113 87.81 220.81L25.605 283H52.5C54.4891 283 56.3968 283.79 57.8033 285.197C59.2098 286.603 60 288.511 60 290.5C60 292.489 59.2098 294.397 57.8033 295.803C56.3968 297.21 54.4891 298 52.5 298H7.5C6.51687 298 5.54341 297.806 4.635 297.43C2.79942 296.66 1.33959 295.201 0.570002 293.365C0.19406 292.457 0.00038603 291.483 0 290.5V245.5C0 243.511 0.790171 241.603 2.19669 240.197C3.60322 238.79 5.51088 238 7.5 238C9.48912 238 11.3968 238.79 12.8033 240.197C14.2098 241.603 15 243.511 15 245.5V272.395L77.19 210.19C77.8867 209.492 78.7143 208.937 79.6255 208.559C80.5367 208.181 81.5135 207.987 82.5 207.987C83.4865 207.987 84.4633 208.181 85.3745 208.559C86.2857 208.937 87.1133 209.492 87.81 210.19ZM25.605 73H52.5C54.4891 73 56.3968 72.2098 57.8033 70.8033C59.2098 69.3968 60 67.4891 60 65.5C60 63.5109 59.2098 61.6032 57.8033 60.1967C56.3968 58.7902 54.4891 58 52.5 58H7.5C6.51687 58.0004 5.54341 58.1941 4.635 58.57C2.79942 59.3396 1.33959 60.7994 0.570002 62.635C0.19406 63.5434 0.00038603 64.5169 0 65.5V110.5C0 112.489 0.790171 114.397 2.19669 115.803C3.60322 117.21 5.51088 118 7.5 118C9.48912 118 11.3968 117.21 12.8033 115.803C14.2098 114.397 15 112.489 15 110.5V83.605L77.19 145.81C77.8878 146.506 78.7159 147.058 79.627 147.433C80.5382 147.809 81.5144 148.002 82.5 148C83.4856 148.002 84.4618 147.809 85.373 147.433C86.2841 147.058 87.1122 146.506 87.81 145.81C88.5084 145.113 89.0626 144.286 89.4407 143.375C89.8188 142.463 90.0134 141.487 90.0134 140.5C90.0134 139.513 89.8188 138.537 89.4407 137.625C89.0626 136.714 88.5084 135.887 87.81 135.19L25.605 73ZM239.43 62.635C238.66 60.7994 237.201 59.3396 235.365 58.57C234.457 58.1941 233.483 58.0004 232.5 58H187.5C185.511 58 183.603 58.7902 182.197 60.1967C180.79 61.6032 180 63.5109 180 65.5C180 67.4891 180.79 69.3968 182.197 70.8033C183.603 72.2098 185.511 73 187.5 73H214.395L152.19 135.19C151.492 135.887 150.937 136.714 150.559 137.625C150.181 138.537 149.987 139.513 149.987 140.5C149.987 141.487 150.181 142.463 150.559 143.375C150.937 144.286 151.492 145.113 152.19 145.81C152.888 146.506 153.716 147.058 154.627 147.433C155.538 147.809 156.514 148.002 157.5 148C158.486 148.002 159.462 147.809 160.373 147.433C161.284 147.058 162.112 146.506 162.81 145.81L225 83.605V110.5C225 112.489 225.79 114.397 227.197 115.803C228.603 117.21 230.511 118 232.5 118C234.489 118 236.397 117.21 237.803 115.803C239.21 114.397 240 112.489 240 110.5V65.5C240 64.5169 239.806 63.5434 239.43 62.635ZM232.5 238C230.511 238 228.603 238.79 227.197 240.197C225.79 241.603 225 243.511 225 245.5V272.395L162.81 210.19C162.113 209.492 161.286 208.937 160.374 208.559C159.463 208.181 158.487 207.987 157.5 207.987C156.513 207.987 155.537 208.181 154.626 208.559C153.714 208.937 152.887 209.492 152.19 210.19C151.492 210.887 150.937 211.714 150.559 212.626C150.181 213.537 149.987 214.513 149.987 215.5C149.987 216.487 150.181 217.463 150.559 218.374C150.937 219.286 151.492 220.113 152.19 220.81L214.395 283H187.5C185.511 283 183.603 283.79 182.197 285.197C180.79 286.603 180 288.511 180 290.5C180 292.489 180.79 294.397 182.197 295.803C183.603 297.21 185.511 298 187.5 298H232.5C233.483 298 234.457 297.806 235.365 297.43C237.201 296.66 238.66 295.201 239.43 293.365C239.806 292.457 240 291.483 240 290.5V245.5C240 243.511 239.21 241.603 237.803 240.197C236.397 238.79 234.489 238 232.5 238Z" fill="#5065FF"></path></svg>